<svg width="120" height="89" viewBox="0 0 120 89" fill="none" xmlns="http://www.w3.org/2000/svg">
<g clip-path="url(#clip0_107_1653)">
<path d="M75.6804 5.71061H73.6087V6.80881H74.5347C74.8322 6.80132 75.1278 6.85801 75.4014 6.97502C75.631 7.07916 75.8251 7.24841 75.9594 7.46179C76.0926 7.67952 76.1605 7.93084 76.1553 8.186C76.1633 8.37767 76.1285 8.56871 76.0536 8.74529C75.9786 8.92188 75.8654 9.07959 75.722 9.20702C75.389 9.48127 74.9655 9.62103 74.5347 9.59881H72.8073V5.08138H75.6745L75.6804 5.71061ZM73.6087 7.43804V8.96958H74.5288C74.7466 8.97604 74.9587 8.89967 75.1224 8.75587C75.1999 8.67876 75.2596 8.58573 75.2975 8.48323C75.3355 8.38073 75.3507 8.27121 75.342 8.16226C75.348 8.06154 75.3314 7.96075 75.2934 7.86729C75.2554 7.77382 75.197 7.69004 75.1224 7.62206C74.9564 7.48291 74.7453 7.40904 74.5288 7.4143L73.6087 7.43804Z" fill="white"/>
<path d="M79.438 7.58051H77.5799V8.96958H79.7526V9.59881H76.7845V5.08138H79.717V5.71061H77.5681V6.95721H79.4261L79.438 7.58051Z" fill="white"/>
<path d="M82.6258 6.31017C82.6283 6.21652 82.6087 6.1236 82.5684 6.03899C82.5282 5.95439 82.4685 5.88051 82.3942 5.8234C82.2121 5.69629 81.9927 5.63361 81.7709 5.64532C81.568 5.63773 81.3688 5.70066 81.207 5.8234C81.1339 5.87614 81.0746 5.9458 81.0343 6.02644C80.994 6.10708 80.9738 6.19629 80.9755 6.28642H80.1978C80.1927 6.05082 80.2634 5.8198 80.3997 5.62751C80.5503 5.42483 80.7565 5.27018 80.9933 5.18229C81.2463 5.07346 81.5193 5.01886 81.7947 5.02202C82.2171 4.99948 82.6349 5.11856 82.9819 5.36038C83.123 5.47242 83.2354 5.61649 83.3098 5.78063C83.3841 5.94477 83.4182 6.12427 83.4093 6.30423C83.4168 6.51721 83.3519 6.72643 83.2253 6.89785C83.0908 7.07847 82.9104 7.21988 82.7029 7.30745C82.9362 7.37431 83.1434 7.51105 83.2966 7.69924C83.4315 7.89188 83.5002 8.1231 83.4924 8.35815C83.4996 8.5449 83.4611 8.73058 83.3805 8.89915C83.2998 9.06773 83.1793 9.21414 83.0294 9.32575C82.6677 9.58122 82.2311 9.70866 81.7887 9.68786C81.491 9.69113 81.1959 9.63251 80.9221 9.51571C80.6817 9.42233 80.4749 9.25896 80.3284 9.04675C80.2009 8.84434 80.1349 8.60924 80.1385 8.37003H80.9221C80.9192 8.46517 80.9393 8.5596 80.9807 8.64535C81.022 8.7311 81.0833 8.80566 81.1595 8.86273C81.3276 8.99743 81.5377 9.06885 81.7531 9.06456C81.9906 9.07682 82.2251 9.00771 82.418 8.86866C82.5 8.81187 82.5664 8.73533 82.611 8.6461C82.6556 8.55687 82.677 8.45784 82.6732 8.35815C82.6834 8.25528 82.6688 8.15147 82.6305 8.05542C82.5923 7.95937 82.5316 7.87387 82.4536 7.80609C82.2603 7.67963 82.0312 7.61922 81.8006 7.63394H81.2723V6.98096H81.7709C82.3468 6.98096 82.6258 6.76132 82.6258 6.31017Z" fill="white"/>
<path d="M87.7843 7.45584C87.7956 7.86323 87.7187 8.26823 87.5587 8.64308C87.4213 8.96048 87.1918 9.22932 86.8998 9.41478C86.603 9.58968 86.2648 9.68191 85.9203 9.68191C85.5759 9.68191 85.2377 9.58968 84.9409 9.41478C84.6501 9.22336 84.4244 8.948 84.2938 8.62527C84.1287 8.26638 84.0475 7.87456 84.0564 7.47959V7.22433C84.045 6.81635 84.1241 6.41092 84.2879 6.03709C84.4287 5.71843 84.6598 5.44806 84.9528 5.25945C85.2464 5.07726 85.5867 4.98445 85.9322 4.99233C86.2752 4.98753 86.6123 5.08189 86.9029 5.26408C87.1936 5.44626 87.4254 5.7085 87.5706 6.01929C87.7356 6.39275 87.8147 6.79845 87.8021 7.20652L87.7843 7.45584ZM87.0007 7.2184C87.0259 6.8144 86.9264 6.41242 86.7158 6.06678C86.6216 5.94368 86.5003 5.84395 86.3613 5.7753C86.2223 5.70666 86.0694 5.67095 85.9144 5.67095C85.7594 5.67095 85.6065 5.70666 85.4675 5.7753C85.3285 5.84395 85.2072 5.94368 85.113 6.06678C84.9043 6.40469 84.8029 6.79793 84.8222 7.19465V7.45584C84.7964 7.86068 84.8981 8.26341 85.113 8.60746C85.2071 8.73167 85.3287 8.8324 85.4683 8.90175C85.6078 8.9711 85.7615 9.00719 85.9174 9.00719C86.0732 9.00719 86.2269 8.9711 86.3665 8.90175C86.506 8.8324 86.6276 8.73167 86.7217 8.60746C86.9297 8.25873 87.027 7.8551 87.0007 7.44991V7.2184Z" fill="white"/>
<path d="M92.1177 9.59881H91.3341V5.71061H89.3455V9.59881H88.562V5.08138H92.1236L92.1177 9.59881Z" fill="white"/>
<path d="M95.5726 8.54217H93.7917L93.4296 9.59881H92.6104L94.32 5.08138H95.0205L96.7598 9.59881H95.9406L95.5726 8.54217ZM94.041 7.91294H95.3529L94.6999 6.0371L94.041 7.91294Z" fill="white"/>
<path d="M100.69 8.12664C100.665 8.55787 100.474 8.9626 100.155 9.25451C99.807 9.53567 99.3677 9.67929 98.9206 9.65817C98.5843 9.66505 98.253 9.57655 97.9649 9.40292C97.6951 9.22335 97.4829 8.96985 97.3535 8.67276C97.1938 8.33095 97.1127 7.95775 97.116 7.58051V7.15904C97.1092 6.77123 97.1861 6.38651 97.3416 6.03116C97.4804 5.72113 97.7075 5.4589 97.9946 5.27727C98.2905 5.1011 98.6296 5.01067 98.974 5.01607C99.4056 5.00224 99.8275 5.14569 100.161 5.41974C100.478 5.71959 100.667 6.12984 100.69 6.56542H99.906C99.8961 6.30684 99.7976 6.05952 99.627 5.86495C99.4387 5.71096 99.1989 5.63453 98.9562 5.65125C98.8039 5.64328 98.6521 5.67328 98.5142 5.73856C98.3764 5.80384 98.257 5.90235 98.1667 6.02523C97.9649 6.35468 97.8676 6.73757 97.8877 7.12342V7.52114C97.8643 7.91253 97.955 8.30229 98.1489 8.64308C98.2342 8.76725 98.3499 8.86741 98.4851 8.93394C98.6202 9.00047 98.7702 9.03114 98.9206 9.023C99.17 9.04391 99.4182 8.96969 99.6151 8.81523C99.7909 8.62762 99.8941 8.38347 99.906 8.12664H100.69Z" fill="white"/>
<path d="M104.952 9.59881H104.174V7.59238H102.15V9.59881H101.366V5.08138H102.15V6.95721H104.174V5.08138H104.952V9.59881Z" fill="white"/>
<path d="M106.661 6.80881H107.587C107.885 6.80132 108.18 6.85801 108.454 6.97502C108.684 7.07916 108.878 7.24841 109.012 7.46179C109.145 7.67952 109.213 7.93084 109.208 8.186C109.216 8.37767 109.181 8.56871 109.106 8.74529C109.031 8.92188 108.918 9.07959 108.775 9.20702C108.442 9.48127 108.018 9.62103 107.587 9.59881H105.86V5.08138H106.644L106.661 6.80881ZM106.661 7.43804V8.96958H107.581C107.694 8.97664 107.807 8.9614 107.914 8.92473C108.021 8.88806 108.12 8.83068 108.205 8.75587C108.282 8.67876 108.342 8.58573 108.38 8.48323C108.418 8.38073 108.433 8.27121 108.424 8.16226C108.43 8.06212 108.414 7.96199 108.377 7.86874C108.34 7.77549 108.283 7.69134 108.211 7.62206C108.043 7.48523 107.833 7.41168 107.617 7.4143L106.661 7.43804ZM110.413 9.59881H109.629V5.08138H110.413V9.59881Z" fill="white"/>
<path d="M114.01 7.58051H112.152V8.96958H114.325V9.59881H111.357V5.08138H114.289V5.71061H112.14V6.95721H113.998L114.01 7.58051Z" fill="white"/>
<path d="M39.4281 15.2857H38.8939V17.2149H38.1162V12.7034H38.8939V14.603H39.3272L40.6569 12.7034H41.6186L40.0633 14.8701L41.7551 17.2446H40.8113L39.4281 15.2857Z" fill="white"/>
<path d="M44.6935 16.1702H42.9127L42.5743 17.2149H41.761L43.4647 12.6975H44.1711L45.8808 17.2149H45.0616L44.6935 16.1702ZM43.162 15.5409H44.4739L43.815 13.6532L43.162 15.5409Z" fill="white"/>
<path d="M49.8224 12.7034V17.2149H49.0447V15.4341C48.7016 15.5227 48.3484 15.5666 47.994 15.5647C47.5551 15.5957 47.1195 15.4694 46.7652 15.2085C46.6214 15.0696 46.5097 14.9009 46.4379 14.7143C46.3661 14.5277 46.336 14.3276 46.3497 14.1281V12.7034H47.1333V14.1459C47.1245 14.2529 47.1373 14.3606 47.171 14.4626C47.2046 14.5646 47.2584 14.6588 47.3292 14.7395C47.5199 14.882 47.7572 14.9477 47.994 14.9236C48.3464 14.9406 48.6994 14.9126 49.0447 14.8405V12.7034H49.8224Z" fill="white"/>
<path d="M53.3781 15.2085H51.5261V16.6213H53.6928V17.2149H50.7247V12.7034H53.6571V13.3386H51.5261V14.5852H53.3781V15.2085Z" fill="white"/>
<path d="M57.7531 15.7546C57.7437 15.9687 57.6916 16.1788 57.5998 16.3725C57.5081 16.5662 57.3785 16.7396 57.2189 16.8825C56.8711 17.1647 56.4314 17.3084 55.9841 17.2862C55.6498 17.2919 55.3207 17.2035 55.0343 17.0309C54.7549 16.8559 54.5338 16.6018 54.3992 16.3008C54.2423 15.958 54.1613 15.5854 54.1617 15.2085V14.7811C54.1528 14.3925 54.232 14.0069 54.3932 13.6532C54.5298 13.3436 54.755 13.0813 55.0403 12.8993C55.3362 12.7232 55.6754 12.6327 56.0197 12.6381C56.4513 12.6243 56.8733 12.7678 57.207 13.0418C57.5253 13.3405 57.7147 13.7514 57.7353 14.1875H56.9873C56.9744 13.9285 56.8739 13.6815 56.7024 13.487C56.5153 13.3303 56.2751 13.2517 56.0316 13.2674C55.8802 13.2593 55.7291 13.2893 55.5922 13.3547C55.4554 13.42 55.337 13.5185 55.248 13.6414C55.0423 13.9694 54.9428 14.3529 54.9631 14.7395V15.1432C54.9329 15.5329 55.0175 15.923 55.2065 16.2651C55.2902 16.3912 55.4055 16.4932 55.5409 16.5609C55.6763 16.6286 55.8271 16.6597 55.9782 16.651C56.2276 16.6719 56.4757 16.5977 56.6727 16.4432C56.8507 16.2565 56.956 16.0122 56.9695 15.7546H57.7531Z" fill="white"/>
<path d="M61.6948 13.3386H60.2879V17.2149H59.5102V13.3386H58.1093V12.7034H61.671L61.6948 13.3386Z" fill="white"/>
<path d="M62.2646 17.2149V12.7034H63.814C64.2332 12.6694 64.6517 12.7782 65.0012 13.0121C65.1372 13.1207 65.2448 13.2606 65.3151 13.4197C65.3854 13.5789 65.4162 13.7527 65.4049 13.9263C65.4064 14.1256 65.3462 14.3205 65.2328 14.4843C65.1123 14.6583 64.9429 14.7926 64.746 14.8701C64.9835 14.9167 65.1951 15.05 65.3396 15.2441C65.4774 15.4356 65.5483 15.6672 65.5414 15.903C65.5539 16.0869 65.5233 16.2711 65.4522 16.4411C65.3811 16.6111 65.2714 16.7622 65.1318 16.8825C64.7891 17.1332 64.368 17.2533 63.9446 17.2209L62.2646 17.2149ZM63.0482 14.603H63.8199C64.0312 14.619 64.2413 14.5602 64.4136 14.4368C64.4811 14.3791 64.5348 14.3071 64.5707 14.2259C64.6067 14.1448 64.624 14.0566 64.6213 13.9678C64.6289 13.8776 64.6157 13.7868 64.5828 13.7024C64.5499 13.6181 64.4981 13.5423 64.4314 13.4811C64.2549 13.3683 64.0465 13.3162 63.8377 13.3327H63.072L63.0482 14.603ZM63.0482 15.1966V16.6213H63.9209C64.1351 16.6391 64.3478 16.5731 64.5145 16.4373C64.5842 16.3725 64.639 16.2932 64.6749 16.205C64.7108 16.1169 64.7269 16.0219 64.7222 15.9268C64.7349 15.8295 64.725 15.7305 64.6934 15.6376C64.6617 15.5447 64.6092 15.4603 64.5398 15.391C64.4704 15.3216 64.386 15.269 64.2931 15.2374C64.2002 15.2058 64.1013 15.1959 64.004 15.2085L63.0482 15.1966Z" fill="white"/>
<path d="M68.8894 15.2085H67.0314V16.6213H69.1981V17.2149H66.23V12.7034H69.1625V13.3386H67.0136V14.5852H68.8716L68.8894 15.2085Z" fill="white"/>
<path d="M73.4009 17.2149H72.6173V15.2204H70.599V17.2149H69.8155V12.7034H70.599V14.5852H72.6173V12.7034H73.4009V17.2149Z" fill="white"/>
<path d="M77.8946 17.2149H77.111V15.2204H75.0867V17.2149H74.3032V12.7034H75.0867V14.5852H77.111V12.7034H77.8946V17.2149Z" fill="white"/>
<path d="M79.5982 14.4309H80.5243C80.8222 14.4247 81.118 14.4834 81.391 14.603C81.6248 14.703 81.8218 14.8731 81.9549 15.0898C82.0833 15.3092 82.149 15.5598 82.1449 15.814C82.1519 16.005 82.1174 16.1952 82.0436 16.3716C81.9698 16.5479 81.8585 16.706 81.7175 16.835C81.3845 17.1087 80.9605 17.2465 80.5302 17.2209H78.8028V12.7034H79.5864L79.5982 14.4309ZM79.5982 15.066V16.6213H80.5243C80.7421 16.6278 80.9542 16.5514 81.1179 16.4076C81.1944 16.3298 81.2535 16.2367 81.2914 16.1344C81.3293 16.032 81.345 15.9228 81.3375 15.814C81.3419 15.714 81.3251 15.6142 81.2883 15.5211C81.2514 15.428 81.1954 15.3438 81.1238 15.2738C80.9562 15.1382 80.7458 15.0666 80.5302 15.072L79.5982 15.066ZM83.3737 17.2149H82.5901V12.7034H83.3737V17.2149Z" fill="white"/>
<path d="M86.9473 15.2085H85.0952V16.6213H87.262V17.2149H84.2939V12.7034H87.262V13.3386H85.119V14.5852H86.9711L86.9473 15.2085Z" fill="white"/>
<path d="M93.5898 18.3309H92.8419V17.2149H89.8738V18.325H89.114V16.5916H89.4761C89.6814 16.3783 89.8304 16.1172 89.9094 15.8318C90.024 15.4656 90.0937 15.0869 90.1172 14.7039L90.2359 12.6975H93.0853V16.6213H93.6789L93.5898 18.3309ZM90.3368 16.6213H92.272V13.3386H90.9542L90.877 14.6089C90.869 15.3145 90.6832 16.0066 90.3368 16.6213Z" fill="white"/>
<path d="M97.7987 15.0838C97.8106 15.4919 97.7316 15.8974 97.5672 16.2711C97.4304 16.5871 97.2032 16.8556 96.9142 17.0428C96.618 17.2242 96.276 17.3169 95.9288 17.3099C95.5837 17.3145 95.2443 17.2219 94.9493 17.0428C94.6582 16.8574 94.4272 16.5913 94.2844 16.277C94.1249 15.9163 94.0439 15.5258 94.047 15.1313V14.8405C94.0385 14.4321 94.1195 14.0269 94.2844 13.6532C94.4246 13.3375 94.6535 13.0694 94.9434 12.8815C95.237 12.6993 95.5773 12.6065 95.9228 12.6144C96.2672 12.609 96.6064 12.6994 96.9023 12.8756C97.1947 13.0632 97.4242 13.334 97.5612 13.6532C97.7241 14.0171 97.8052 14.4122 97.7987 14.8108V15.0838ZM97.0151 14.8464C97.0403 14.4424 96.9408 14.0404 96.7302 13.6948C96.636 13.5717 96.5147 13.4719 96.3757 13.4033C96.2367 13.3347 96.0838 13.2989 95.9288 13.2989C95.7738 13.2989 95.6209 13.3347 95.4819 13.4033C95.3429 13.4719 95.2216 13.5717 95.1274 13.6948C94.9158 14.0315 94.8142 14.4256 94.8365 14.8226V15.0838C94.8116 15.4886 94.9132 15.8911 95.1274 16.2355C95.2158 16.3651 95.3358 16.4702 95.4759 16.5408C95.6161 16.6114 95.7719 16.6453 95.9288 16.6391C96.0853 16.6476 96.2414 16.6155 96.3818 16.5458C96.5223 16.4761 96.6423 16.3712 96.7302 16.2414C96.9424 15.8942 97.0419 15.4899 97.0151 15.0838V14.8464Z" fill="white"/>
<path d="M99.3421 15.5469V17.2149H98.5407V12.7034H100.274C100.706 12.6823 101.129 12.8243 101.461 13.1012C101.608 13.2314 101.725 13.3927 101.802 13.5734C101.879 13.7541 101.914 13.9497 101.906 14.1459C101.917 14.3396 101.883 14.5331 101.808 14.7119C101.733 14.8908 101.618 15.0504 101.473 15.1788C101.122 15.4421 100.689 15.5725 100.25 15.5469H99.3421ZM99.3421 14.9117H100.286C100.515 14.9284 100.741 14.8585 100.921 14.7158C101.001 14.6402 101.062 14.5474 101.1 14.4445C101.138 14.3416 101.152 14.2313 101.141 14.1222C101.148 14.0133 101.132 13.9041 101.095 13.8018C101.057 13.6995 100.998 13.6064 100.921 13.5286C100.759 13.381 100.547 13.3004 100.327 13.303H99.3658L99.3421 14.9117Z" fill="white"/>
<path d="M106.198 15.0838C106.21 15.4919 106.131 15.8974 105.967 16.2711C105.83 16.5871 105.603 16.8556 105.314 17.0428C105.018 17.2242 104.676 17.3169 104.328 17.3099C103.983 17.3145 103.644 17.2219 103.349 17.0428C103.059 16.8493 102.832 16.5747 102.696 16.2533C102.536 15.8926 102.455 15.502 102.458 15.1076V14.8405C102.45 14.4321 102.531 14.0269 102.696 13.6532C102.836 13.3375 103.065 13.0694 103.355 12.8815C103.649 12.6993 103.989 12.6065 104.334 12.6144C104.679 12.609 105.018 12.6994 105.314 12.8756C105.602 13.065 105.827 13.3356 105.961 13.6532C106.124 14.0171 106.205 14.4122 106.198 14.8108V15.0838ZM105.415 14.8464C105.44 14.4424 105.34 14.0404 105.13 13.6948C105.036 13.5717 104.914 13.4719 104.775 13.4033C104.636 13.3347 104.483 13.2989 104.328 13.2989C104.173 13.2989 104.02 13.3347 103.881 13.4033C103.743 13.4719 103.621 13.5717 103.527 13.6948C103.315 14.0315 103.214 14.4256 103.236 14.8226V15.0838C103.211 15.4886 103.313 15.8911 103.527 16.2355C103.615 16.3651 103.735 16.4702 103.876 16.5408C104.016 16.6114 104.172 16.6453 104.328 16.6391C104.485 16.6476 104.641 16.6155 104.781 16.5458C104.922 16.4761 105.042 16.3712 105.13 16.2414C105.342 15.8942 105.442 15.4899 105.415 15.0838V14.8464Z" fill="white"/>
<path d="M109.819 13.3386H107.736V17.2149H106.952V12.7034H109.819V13.3386Z" fill="white"/>
<path d="M113.239 12.7034H114.022V17.2149H113.239V14.0035L111.256 17.2149H110.466V12.7034H111.256V15.9268L113.239 12.7034Z" fill="white"/>
<path d="M119.162 2.64735e-10H32.903C32.7341 0.000964778 32.5693 0.0523216 32.4297 0.147497C32.2901 0.242673 32.1821 0.377338 32.1195 0.534257L0.0640577 87.7962C0.0621996 87.8298 0.0621996 87.8635 0.0640577 87.8971C0.0640577 87.9327 0.0640577 87.9624 0.0640577 87.9921C0.0611059 88.0336 0.0611059 88.0752 0.0640577 88.1167V88.1939C0.069495 88.2447 0.0814663 88.2946 0.0996748 88.3423C0.147085 88.5013 0.240678 88.6426 0.368568 88.7483C0.496458 88.854 0.652875 88.9193 0.817954 88.9359H0.90106C1.00036 88.9349 1.09875 88.9168 1.19193 88.8825L96.8061 54.0608C96.9683 54.0021 97.1083 53.8948 97.2071 53.7535C97.3059 53.6121 97.3587 53.4438 97.3582 53.2713V38.4843L119.536 26.8731C119.676 26.8032 119.793 26.6956 119.875 26.5623C119.957 26.4291 120 26.2756 119.999 26.1192V0.842938C120 0.732523 119.979 0.623044 119.937 0.520808C119.895 0.418572 119.834 0.3256 119.756 0.247247C119.678 0.168895 119.585 0.10671 119.483 0.0642761C119.382 0.0218421 119.272 -2.77674e-06 119.162 2.64735e-10V2.64735e-10ZM96.076 52.9626L1.69057 87.3153L31.6208 23.1511H96.076V52.9626ZM119.37 26.1192C119.368 26.16 119.355 26.1996 119.332 26.2333C119.309 26.267 119.277 26.2933 119.239 26.3092L97.3582 37.7719V22.6881C97.3582 22.4645 97.2694 22.2501 97.1113 22.0921C96.9532 21.934 96.7388 21.8452 96.5152 21.8452H31.3418C31.1819 21.8452 31.0254 21.8911 30.8907 21.9774C30.756 22.0636 30.6489 22.1867 30.582 22.3319L3.27554 80.9458L32.7131 0.771704C32.7283 0.733614 32.7545 0.700886 32.7883 0.677645C32.8221 0.654404 32.862 0.641691 32.903 0.641108H119.162C119.189 0.640286 119.217 0.645099 119.242 0.655249C119.268 0.665399 119.291 0.680674 119.311 0.700133C119.33 0.719592 119.345 0.742825 119.355 0.768404C119.366 0.793983 119.37 0.821367 119.37 0.848874V26.1192Z" fill="white"/>
<path d="M35.617 27.5261H34.1567V23.9644H32.8567V32.2453H34.1567V28.6836H35.617V32.2453H36.9408V23.9881H35.617V27.5261ZM90.3487 23.9644H89.0428V32.2453H90.3428L90.3487 23.9644ZM39.0838 23.9644L37.7778 32.2453H38.9651L39.1788 30.7435H40.7815L41.0071 32.2453H42.319L40.9952 23.9881L39.0838 23.9644ZM39.345 29.6037L39.9386 25.4484L40.5678 29.6037H39.345ZM50.3091 27.3717L49.8639 29.212V23.9881H48.6767V32.2453H50.0064L51.0927 28.4581L51.627 26.4279V32.2453H52.8142V23.9881H51.3895L50.3091 27.3717ZM70.9136 30.1321L71.0561 25.1397H72.184V32.2453H73.5078V23.9881H69.8392L69.6255 30.227C69.6255 30.9928 69.4118 31.0759 68.8241 31.0759V32.2632H69.0259C70.3319 32.2572 70.878 31.6695 70.9255 30.1558L70.9136 30.1321ZM88.3067 30.1796V29.1289C88.3067 27.811 87.6715 27.0868 86.3715 27.0868H85.7779V23.9881H84.4719V32.2453H86.3833C87.6834 32.2453 88.3185 31.5271 88.3185 30.2033L88.3067 30.1796ZM85.76 28.2444H86.3537C86.7692 28.2444 86.9948 28.4343 86.9948 29.022V30.2745C86.9948 30.8682 86.7692 31.0522 86.3537 31.0522H85.76V28.2444ZM78.411 30.1796V29.1289C78.411 27.811 77.7759 27.0868 76.4758 27.0868H75.8822V23.9881H74.5822V32.2453H76.4937C77.764 32.2453 78.4229 31.5271 78.4229 30.2033L78.411 30.1796ZM75.8644 28.2444H76.458C76.8736 28.2444 77.0932 28.4343 77.0932 29.022V30.2745C77.0932 30.8682 76.8736 31.0522 76.458 31.0522H75.8644V28.2444ZM80.6134 28.6836H82.0855V32.2453H83.4093V23.9881H82.0855V27.5498H80.6134V23.9881H79.3133V32.2453H80.6134V28.6836ZM47.2045 23.9347H45.9104V31.0641H44.4382V23.9881H43.1382V32.2453H46.5337V33.3554H47.7981V31.0878H47.2045V23.9347ZM66.7939 32.1919H68.1058L66.782 23.9347H64.8825L63.5646 32.1919H64.7519L64.9715 30.6901H66.5683L66.7939 32.1919ZM65.1437 29.5741L65.7729 25.4187L66.3665 29.5741H65.1437ZM94.8899 25.1101V23.9228H91.3282V32.2453H94.8899V31.0581H92.646V28.648H94.4269V27.4608H92.646V25.1635L94.8899 25.1101ZM55.7111 23.8397C54.4348 23.8397 53.7402 24.5936 53.7402 25.9114V30.2745C53.7402 31.5983 54.4348 32.3522 55.7111 32.3522C56.9873 32.3522 57.6819 31.5983 57.6819 30.2745V25.9649C57.7115 24.647 57.017 23.8931 55.7407 23.8931L55.7111 23.8397ZM56.3937 30.3458C56.3937 30.9394 56.1385 31.159 55.7229 31.159C55.3074 31.159 55.0521 30.9335 55.0521 30.3458V25.8877C55.0521 25.2941 55.3133 25.0744 55.7229 25.0744C56.1325 25.0744 56.3937 25.2941 56.3937 25.8877V30.3458ZM59.9554 28.7074H61.4335V32.2691H62.7514V23.9881H61.4335V27.5498H59.9554V23.9881H58.6851V32.2453H59.9554V28.7074ZM78.1617 35.0769V33.8897H74.6V42.1469H78.1617V40.9597H75.9238V38.5852H77.7046V37.398H75.9238V35.0769H78.1617ZM82.0796 42.1469H83.4093L81.6285 37.5642L83.4093 33.8837H82.1152L80.4175 37.4811V33.8956H79.1174V42.1469H80.4175V39.6181L80.8152 38.8642L82.0796 42.1469ZM86.7336 42.1469V35.0769H88.087V33.8897H84.0742V35.0769H85.4336V42.1469H86.7336ZM92.7588 40.1049V39.0423C92.7588 37.7185 92.1236 37.0002 90.8236 37.0002H90.23V33.8956H88.93V42.1469H90.8236C92.1236 42.1469 92.7588 41.4346 92.7588 40.1167V40.1049ZM90.23 38.1815H90.8236C91.2391 38.1815 91.4647 38.3656 91.4647 38.9592V40.1939C91.4647 40.7875 91.2391 40.9775 90.8236 40.9775H90.23V38.1815ZM68.9606 36.9943V35.9377C68.9606 34.6198 68.3255 33.8956 67.0254 33.8956H65.114V42.1469H66.414V39.0542H67.0076C68.3076 39.0542 68.9428 38.3359 68.9428 37.0121L68.9606 36.9943ZM66.414 35.0591H67.0076C67.4172 35.0591 67.6428 35.2491 67.6428 35.8367V37.0774C67.6428 37.671 67.4172 37.855 67.0076 37.855H66.414V35.0591ZM59.9554 42.1469H61.2495V35.0769H62.7276V42.1469H64.0455V33.8956H59.9554V42.1469ZM93.489 42.1469H94.789V33.8956H93.489V42.1469ZM71.7031 33.8006C70.4328 33.8006 69.7323 34.5605 69.7323 35.8783V40.1761C69.7323 41.4939 70.4328 42.2538 71.7031 42.2538C72.9735 42.2538 73.674 41.4939 73.674 40.1761V35.8783C73.674 34.5605 72.9794 33.8006 71.7031 33.8006ZM72.3799 40.2533C72.3799 40.8469 72.1187 41.0725 71.7031 41.0725C71.2876 41.0725 71.0324 40.8469 71.0324 40.2533V35.7952C71.0324 35.2016 71.2936 34.9819 71.7031 34.9819C72.1127 34.9819 72.3799 35.2075 72.3799 35.7952V40.2533ZM92.3136 47.2164L91.8387 49.0329V43.809H90.6515V52.0663H92.0109L93.0972 48.279L93.6255 46.2488V52.0663H94.8127V43.809H93.3821L92.3136 47.2164ZM73.1278 43.7141C71.8516 43.7141 71.157 44.468 71.157 45.7917V50.0836C71.157 51.4074 71.8516 52.1612 73.1278 52.1612C74.4041 52.1612 75.0986 51.4074 75.0986 50.0836V45.7917C75.0986 44.468 74.4041 43.7141 73.1278 43.7141ZM73.7986 50.1667C73.7986 50.7603 73.5434 50.9799 73.1278 50.9799C72.7123 50.9799 72.457 50.7544 72.457 50.1667V45.7086C72.457 45.115 72.7123 44.8954 73.1278 44.8954C73.5434 44.8954 73.7986 45.115 73.7986 45.7086V50.1667ZM68.4561 43.809H66.5446V52.0663H67.8387V48.9616H68.4323C69.7264 48.9616 70.3675 48.2434 70.3675 46.9196V45.8511C70.3675 44.5214 69.7264 43.809 68.4323 43.809H68.4561ZM69.0912 47.0086C69.0912 47.6023 68.8657 47.7863 68.4561 47.7863H67.8624V44.9903H68.4561C68.8657 44.9903 69.0912 45.1744 69.0912 45.768V47.0086ZM77.954 43.7141C76.6836 43.7141 76.0247 44.468 76.0247 45.7917V50.0836C76.0247 51.4074 76.6836 52.1612 77.954 52.1612C79.2243 52.1612 79.8892 51.4074 79.8892 50.0836V48.9854H78.6663V50.1726C78.6663 50.7662 78.4051 50.974 77.9896 50.974C77.574 50.974 77.3188 50.7603 77.3188 50.1726V45.7086C77.3188 45.115 77.58 44.8954 77.9896 44.8954C78.3992 44.8954 78.6663 45.115 78.6663 45.7086V46.5931H79.8892V45.7917C79.8654 44.468 79.2065 43.7141 77.9302 43.7141H77.954ZM82.7029 43.7141C81.4326 43.7141 80.7677 44.468 80.7677 45.7917V50.0836C80.7677 51.4074 81.4326 52.1612 82.7029 52.1612C83.9733 52.1612 84.6381 51.4074 84.6381 50.0836V48.9854H83.4093V50.1726C83.4093 50.7662 83.1541 50.974 82.7385 50.974C82.323 50.974 82.0677 50.7603 82.0677 50.1726V45.7086C82.0677 45.115 82.3289 44.8954 82.7385 44.8954C83.1481 44.8954 83.4093 45.115 83.4093 45.7086V46.5931H84.6381V45.7917C84.6144 44.468 83.9554 43.7141 82.6792 43.7141H82.7029ZM87.1907 47.2164L86.7217 49.0329V43.809H85.5345V52.0663H86.8701L87.9505 48.279L88.4848 46.2488V52.0663H89.672V43.809H88.2414L87.1907 47.2164Z" fill="white"/>
</g>
<defs>
<clipPath id="clip0_107_1653">
<rect width="120" height="88.9359" fill="white"/>
</clipPath>
</defs>
</svg>
