<?xml version="1.0" encoding="utf-8"?>
<!-- Generator: Adobe Illustrator 23.0.2, SVG Export Plug-In . SVG Version: 6.00 Build 0)  -->
<svg version="1.1" id="Слой_1" xmlns="http://www.w3.org/2000/svg" xmlns:xlink="http://www.w3.org/1999/xlink" x="0px" y="0px"
	 viewBox="0 0 142.4 149.1" style="enable-background:new 0 0 142.4 149.1;" xml:space="preserve">
<style type="text/css">
	.st0{fill:#DBDBDB;}
	.st1{fill:#B8B9B9;}
	.st2{fill:#FFFFFF;}
	.st3{fill:#5C4166;}
	.st4{fill:#648791;}
	.st5{fill:none;stroke:#6C6C6B;stroke-width:0.25;stroke-miterlimit:10;}
	.st6{fill:none;stroke:#6C6C6B;stroke-width:0.25;stroke-miterlimit:10;stroke-dasharray:1.9614,1.9614;}
	.st7{fill:none;stroke:#6C6C6B;stroke-width:0.25;stroke-miterlimit:10;stroke-dasharray:1.9151,1.9151;}
	.st8{fill:#6C6C6B;}
	.st9{fill:none;stroke:#6C6C6B;stroke-width:0.25;stroke-miterlimit:10;stroke-dasharray:1.949,1.949;}
	.st10{fill:none;stroke:#8E4844;stroke-width:0.25;stroke-miterlimit:10;}
	.st11{fill:none;stroke:#8E4844;stroke-width:0.25;stroke-miterlimit:10;stroke-dasharray:1.9614,1.9614;}
	.st12{fill:none;stroke:#8E4844;stroke-width:0.25;stroke-miterlimit:10;stroke-dasharray:1.949,1.949;}
	.st13{fill:#8E4844;}
	.st14{fill:#34684D;}
	.st15{fill:none;stroke:#6C6C6B;stroke-width:0.25;stroke-miterlimit:10;stroke-dasharray:1.9818,1.9818;}
	.st16{fill:none;stroke:#8E4844;stroke-width:0.25;stroke-miterlimit:10;stroke-dasharray:2.0297,2.0297;}
	.st17{clip-path:url(#SVGID_2_);}
	.st18{clip-path:url(#SVGID_4_);}
	.st19{clip-path:url(#SVGID_6_);}
	.st20{fill:#D2861A;}
	.st21{clip-path:url(#SVGID_8_);}
	.st22{clip-path:url(#SVGID_8_);fill:#315589;}
	.st23{clip-path:url(#SVGID_8_);fill:#FFFFFF;}
	.st24{fill:#294C94;}
	.st25{clip-path:url(#SVGID_10_);}
	.st26{clip-path:url(#SVGID_12_);fill:#1D1C1B;}
	.st27{clip-path:url(#SVGID_14_);fill:#1D1C1B;}
	.st28{clip-path:url(#SVGID_16_);fill:#4470B4;}
	.st29{clip-path:url(#SVGID_18_);fill:#315589;}
	.st30{clip-path:url(#SVGID_20_);fill:#294C94;}
</style>
<circle class="st0" cx="67.4" cy="71.7" r="67.3"/>
<g>
	<g>
		<path class="st1" d="M68.8,0C78,0,87.2,1.7,95.8,5.1c8.6,3.4,16.6,8.4,23.3,14.8c6.8,6.3,12.3,14,16.2,22.3
			c3.9,8.4,6.3,17.5,6.8,26.8c0.5,9.3-0.7,18.6-3.6,27.4c-2.9,8.8-7.6,17-13.6,24.1c-12,14.2-29.6,23.5-48,25.3l0-0.3
			c9.1-1.1,18.1-3.9,26.1-8.3c8.1-4.4,15.3-10.3,21.2-17.3c5.9-7,10.5-15.1,13.5-23.8c2.9-8.7,4.2-17.9,3.7-27.1
			c-0.5-9.2-2.7-18.2-6.6-26.6c-3.9-8.3-9.3-15.9-16-22.3c-6.7-6.3-14.5-11.4-23.1-14.8C87.2,1.9,78,0.2,68.8,0L68.8,0z"/>
		<g>
			<path class="st1" d="M78.7,145.4l2.4,3.4L81,149l-6-1.9c-2.1-0.3-4.1-0.6-6.2-0.9c2-0.6,4-1.2,6-1.8l5.7-2.7l0.1,0.1L78.7,145.4z
				"/>
		</g>
	</g>
</g>
</svg>
